<svg aria-hidden="true" style="position:absolute;width:0;height:0;overflow:hidden" xmlns="http://www.w3.org/2000/svg">
  <defs>
    <symbol id="star" viewBox="0 0 88 88" fill="none">
        <path d="M43.1335 0.504534C43.5181 -0.16334 44.4819 -0.16334 44.8665 0.504534L50.9337 11.0385C51.2243 11.543 51.8827 11.6936 52.3637 11.3655L62.5123 4.44299C63.1516 4.00687 64.0228 4.43115 64.0736 5.20342L64.8648 17.2239C64.9035 17.8107 65.4378 18.2377 66.0187 18.1459L78.2024 16.2213C78.9739 16.0994 79.581 16.8695 79.2825 17.5913L74.6811 28.7157C74.4534 29.2661 74.7542 29.8921 75.3261 30.0583L87.1082 33.4815C87.8637 33.701 88.0816 34.6666 87.4935 35.1892L78.421 43.2525C77.9734 43.6503 77.9734 44.3497 78.421 44.7475L87.4935 52.8108C88.0816 53.3334 87.8637 54.299 87.1082 54.5185L75.3261 57.9417C74.7542 58.1079 74.4534 58.7339 74.6811 59.2843L79.2825 70.4087C79.581 71.1305 78.9739 71.9006 78.2024 71.7787L66.0187 69.8541C65.4378 69.7623 64.9035 70.1893 64.8648 70.7762L64.0736 82.7966C64.0228 83.5688 63.1516 83.9931 62.5123 83.557L52.3637 76.6345C51.8827 76.3064 51.2243 76.457 50.9337 76.9615L44.8665 87.4955C44.4819 88.1633 43.5181 88.1633 43.1335 87.4955L37.0663 76.9615C36.7757 76.457 36.1173 76.3064 35.6363 76.6345L25.4877 83.557C24.8483 83.9931 23.9772 83.5688 23.9264 82.7966L23.1352 70.7762C23.0965 70.1893 22.5622 69.7623 21.9813 69.8541L9.79764 71.7787C9.02613 71.9006 8.41899 71.1305 8.71754 70.4087L13.3189 59.2843C13.5466 58.7339 13.2458 58.1079 12.6739 57.9417L0.891789 54.5185C0.136307 54.299 -0.08156 53.3334 0.50648 52.8108L9.579 44.7475C10.0266 44.3497 10.0266 43.6503 9.579 43.2525L0.50648 35.1892C-0.0815601 34.6666 0.136306 33.701 0.891788 33.4815L12.6739 30.0583C13.2458 29.8921 13.5466 29.2661 13.3189 28.7157L8.71754 17.5913C8.41899 16.8695 9.02613 16.0994 9.79764 16.2213L21.9813 18.1459C22.5622 18.2377 23.0965 17.8107 23.1352 17.2239L23.9264 5.20342C23.9772 4.43116 24.8483 4.00687 25.4877 4.44299L35.6363 11.3655C36.1173 11.6936 36.7757 11.543 37.0663 11.0385L43.1335 0.504534Z"/>
    </symbol>
    <symbol id="facebook" viewBox="0 0 28 28" fill="none">
        <path d="M17.0799 4.06014C17.2899 4.06014 17.4999 4.06014 17.9199 4.06014V7.21014C17.7099 7.21014 17.2899 7.21014 16.8699 7.21014C16.4499 7.21014 16.0299 7.21014 15.8199 7.42014C15.6099 7.63014 15.6099 7.84014 15.6099 8.33014C15.6099 8.75014 15.6099 9.03014 15.6099 9.45014H17.9199V12.1101H15.6099V23.6601H12.0399V12.0401H10.1499V9.38014H12.0399V8.47014C12.0399 6.93014 12.2499 5.81014 12.6699 5.32014C13.2999 4.41014 14.5599 3.99014 16.4499 3.99014C16.6599 4.06014 16.8699 4.06014 17.0799 4.06014Z"/>
    </symbol>
    <symbol id="instagram" viewBox="0 0 28 28" fill="none">
        <path d="M25.1277 9.41145C25.114 8.47139 24.9398 7.53878 24.6065 6.65957C24.0231 5.15821 22.8352 3.97103 21.3313 3.38985C20.4618 3.06325 19.5426 2.88816 18.6122 2.86829C17.4155 2.81489 17.0361 2.79999 13.9986 2.79999C10.961 2.79999 10.5716 2.79999 9.38372 2.86829C8.45454 2.88816 7.5353 3.06325 6.66582 3.38985C5.16196 3.97103 3.97279 5.15821 3.39065 6.65957C3.06351 7.52761 2.88688 8.44532 2.86946 9.37296C2.81598 10.5688 2.7998 10.9476 2.7998 13.9801C2.7998 17.0127 2.7998 17.4001 2.86946 18.5873C2.88812 19.5162 3.06351 20.4326 3.39065 21.3032C3.97404 22.8033 5.16195 23.9905 6.66706 24.5716C7.53281 24.9094 8.45205 25.1006 9.38497 25.1304C10.5828 25.1838 10.9622 25.2 13.9998 25.2C17.0374 25.2 17.4267 25.2 18.6146 25.1304C19.5438 25.1118 20.4631 24.9367 21.3338 24.6101C22.8377 24.0277 24.0256 22.8405 24.609 21.3404C24.9361 20.4711 25.1115 19.5547 25.1301 18.6245C25.1836 17.4299 25.1998 17.0511 25.1998 14.0174C25.1973 10.9848 25.1973 10.5999 25.1277 9.41145ZM13.9911 19.7149C10.8142 19.7149 8.24059 17.1455 8.24059 13.9739C8.24059 10.8023 10.8142 8.23296 13.9911 8.23296C17.1655 8.23296 19.7416 10.8023 19.7416 13.9739C19.7416 17.1455 17.1655 19.7149 13.9911 19.7149ZM19.9705 9.3593C19.2279 9.3593 18.6296 8.76074 18.6296 8.02061C18.6296 7.28049 19.2279 6.68193 19.9705 6.68193C20.7106 6.68193 21.3102 7.28049 21.3102 8.02061C21.3102 8.76074 20.7106 9.3593 19.9705 9.3593Z"/>
        <path d="M13.9932 17.479C15.9282 17.479 17.4967 15.9104 17.4967 13.9755C17.4967 12.0406 15.9282 10.472 13.9932 10.472C12.0583 10.472 10.4897 12.0406 10.4897 13.9755C10.4897 15.9104 12.0583 17.479 13.9932 17.479Z"/>
    </symbol>
    <symbol id="youtube" viewBox="0 0 28 28" fill="none">
        <path fill-rule="evenodd" clip-rule="evenodd" d="M21.2099 5.24986C20.0199 5.17986 17.5699 5.10986 13.8599 5.10986H13.3699C9.79985 5.10986 7.41989 5.17986 6.22989 5.31986C4.61989 5.45986 3.49985 5.87986 2.86985 6.43986C2.30985 6.92986 1.88987 7.83986 1.74987 9.02986C1.67987 9.79986 1.60986 11.4099 1.60986 13.8599V14.2099C1.60986 16.5199 1.67985 18.1299 1.81985 18.8999C2.02985 20.0199 2.37989 20.8599 3.07989 21.3499C3.77989 21.9099 4.96987 22.2599 6.64987 22.3999C7.83987 22.4699 10.2899 22.5399 13.9999 22.5399H14.4899C18.0599 22.5399 20.4399 22.4699 21.6299 22.3299C23.2399 22.1899 24.3599 21.7699 24.9899 21.2099C25.5499 20.7199 25.9699 19.8099 26.1099 18.6199C26.1799 17.8499 26.2499 16.2399 26.2499 13.7899V13.4399C26.2499 11.1299 26.1799 9.51986 26.0399 8.74986C25.8299 7.62986 25.4799 6.78986 24.7799 6.29986C24.0799 5.73986 22.8899 5.38986 21.2099 5.24986ZM18.4799 13.8599L10.7799 18.4799V9.23986L18.4799 13.8599Z"/>
    </symbol>
    <symbol id="arrow" viewBox="0 0 24 17" fill="none">
        <path d="M20.8244 9.9674C20.694 8.99 20.6096 8.11755 20.5715 7.35006C20.555 6.57005 20.5846 5.89498 20.6604 5.32488L1.69042 16.2772L0.792981 14.7228L19.7629 3.77047C19.2171 3.52637 18.6105 3.20217 17.9433 2.79788C17.2977 2.38106 16.5914 1.88415 15.8244 1.30714L16.9633 0.649629C19.3698 1.66175 21.5707 2.1675 23.5661 2.1669L23.9507 2.83308C22.9382 4.53612 22.2758 6.69506 21.9633 9.30988L20.8244 9.9674Z"/>
    </symbol>
    <symbol id="pattern" viewBox="0 0 595 528" fill="#000000">
        <path d="M594.202 527.411H575.645V508.575H594.202V527.411Z"/>
        <path d="M575.644 527.411H557.087V508.575H575.644V527.411Z"/>
        <path d="M501.414 527.411H482.857V508.575H501.414V527.411Z"/>
        <path d="M482.857 527.411H464.299V508.575H482.857V527.411Z"/>
        <path d="M464.299 527.411H445.742V508.575H464.299V527.411Z"/>
        <path d="M352.954 527.411H334.397V508.575H352.954V527.411Z"/>
        <path d="M241.614 527.411H223.057V508.575H241.614V527.411Z"/>
        <path d="M130.269 527.411H111.711V508.575H130.269V527.411Z"/>
        <path d="M111.711 527.411H93.1538V508.575H111.711V527.411Z"/>
        <path d="M93.1542 527.411H74.5967V508.575H93.1542V527.411Z"/>
        <path d="M18.9242 527.411H0.366699V508.575H18.9242V527.411Z"/>
        <path d="M594.202 508.575H575.645V489.739H594.202V508.575Z"/>
        <path d="M519.972 508.575H501.415V489.739H519.972V508.575Z"/>
        <path d="M501.414 508.575H482.857V489.739H501.414V508.575Z"/>
        <path d="M482.857 508.575H464.299V489.739H482.857V508.575Z"/>
        <path d="M352.954 508.575H334.397V489.739H352.954V508.575Z"/>
        <path d="M334.397 508.575H315.839V489.739H334.397V508.575Z"/>
        <path d="M260.172 508.575H241.614V489.739H260.172V508.575Z"/>
        <path d="M241.614 508.575H223.057V489.739H241.614V508.575Z"/>
        <path d="M111.711 508.575H93.1538V489.739H111.711V508.575Z"/>
        <path d="M93.1542 508.575H74.5967V489.739H93.1542V508.575Z"/>
        <path d="M74.5966 508.575H56.0391V489.739H74.5966V508.575Z"/>
        <path d="M538.53 489.739H519.972V470.903H538.53V489.739Z"/>
        <path d="M519.972 489.739H501.415V470.903H519.972V489.739Z"/>
        <path d="M501.414 489.739H482.857V470.903H501.414V489.739Z"/>
        <path d="M352.954 489.739H334.397V470.903H352.954V489.739Z"/>
        <path d="M334.397 489.739H315.839V470.903H334.397V489.739Z"/>
        <path d="M315.84 489.739H297.282V470.903H315.84V489.739Z"/>
        <path d="M278.729 489.739H260.171V470.903H278.729V489.739Z"/>
        <path d="M260.172 489.739H241.614V470.903H260.172V489.739Z"/>
        <path d="M241.614 489.739H223.057V470.903H241.614V489.739Z"/>
        <path d="M93.1542 489.739H74.5967V470.903H93.1542V489.739Z"/>
        <path d="M74.5966 489.739H56.0391V470.903H74.5966V489.739Z"/>
        <path d="M56.0389 489.739H37.4814V470.903H56.0389V489.739Z"/>
        <path d="M557.087 470.903H538.529V452.067H557.087V470.903Z"/>
        <path d="M538.53 470.903H519.972V452.067H538.53V470.903Z"/>
        <path d="M519.972 470.903H501.415V452.067H519.972V470.903Z"/>
        <path d="M427.184 470.903H408.627V452.067H427.184V470.903Z"/>
        <path d="M408.627 470.903H390.069V452.067H408.627V470.903Z"/>
        <path d="M390.069 470.903H371.512V452.067H390.069V470.903Z"/>
        <path d="M334.397 470.903H315.839V452.067H334.397V470.903Z"/>
        <path d="M315.84 470.903H297.282V452.067H315.84V470.903Z"/>
        <path d="M278.729 470.903H260.171V452.067H278.729V470.903Z"/>
        <path d="M260.172 470.903H241.614V452.067H260.172V470.903Z"/>
        <path d="M204.499 470.903H185.941V452.067H204.499V470.903Z"/>
        <path d="M185.942 470.903H167.384V452.067H185.942V470.903Z"/>
        <path d="M167.384 470.903H148.827V452.067H167.384V470.903Z"/>
        <path d="M74.5966 470.903H56.0391V452.067H74.5966V470.903Z"/>
        <path d="M56.0389 470.903H37.4814V452.067H56.0389V470.903Z"/>
        <path d="M37.4813 470.903H18.9238V452.067H37.4813V470.903Z"/>
        <path d="M575.644 452.067H557.087V433.231H575.644V452.067Z"/>
        <path d="M557.087 452.067H538.529V433.231H557.087V452.067Z"/>
        <path d="M538.53 452.067H519.972V433.231H538.53V452.067Z"/>
        <path d="M408.627 452.067H390.069V433.231H408.627V452.067Z"/>
        <path d="M390.069 452.067H371.512V433.231H390.069V452.067Z"/>
        <path d="M371.512 452.067H352.955V433.231H371.512V452.067Z"/>
        <path d="M315.84 452.067H297.282V433.231H315.84V452.067Z"/>
        <path d="M278.729 452.067H260.171V433.231H278.729V452.067Z"/>
        <path d="M223.057 452.067H204.499V433.231H223.057V452.067Z"/>
        <path d="M204.499 452.067H185.941V433.231H204.499V452.067Z"/>
        <path d="M185.942 452.067H167.384V433.231H185.942V452.067Z"/>
        <path d="M56.0389 452.067H37.4814V433.231H56.0389V452.067Z"/>
        <path d="M37.4813 452.067H18.9238V433.231H37.4813V452.067Z"/>
        <path d="M18.9242 452.067H0.366699V433.231H18.9242V452.067Z"/>
        <path d="M575.644 433.23H557.087V414.394H575.644V433.23Z"/>
        <path d="M557.087 433.23H538.529V414.394H557.087V433.23Z"/>
        <path d="M390.069 433.23H371.512V414.394H390.069V433.23Z"/>
        <path d="M371.512 433.23H352.955V414.394H371.512V433.23Z"/>
        <path d="M352.954 433.23H334.397V414.394H352.954V433.23Z"/>
        <path d="M241.614 433.23H223.057V414.394H241.614V433.23Z"/>
        <path d="M223.057 433.23H204.499V414.394H223.057V433.23Z"/>
        <path d="M204.499 433.23H185.941V414.394H204.499V433.23Z"/>
        <path d="M37.4813 433.23H18.9238V414.394H37.4813V433.23Z"/>
        <path d="M18.9242 433.23H0.366699V414.394H18.9242V433.23Z"/>
        <path d="M575.644 414.395H557.087V395.558H575.644V414.395Z"/>
        <path d="M482.857 414.395H464.299V395.558H482.857V414.395Z"/>
        <path d="M315.84 414.395H297.282V395.558H315.84V414.395Z"/>
        <path d="M278.729 414.395H260.171V395.558H278.729V414.395Z"/>
        <path d="M111.711 414.395H93.1538V395.558H111.711V414.395Z"/>
        <path d="M18.9242 414.395H0.366699V395.558H18.9242V414.395Z"/>
        <path d="M482.857 395.558H464.299V376.722H482.857V395.558Z"/>
        <path d="M464.299 395.558H445.742V376.722H464.299V395.558Z"/>
        <path d="M334.397 395.558H315.839V376.722H334.397V395.558Z"/>
        <path d="M315.84 395.558H297.282V376.722H315.84V395.558Z"/>
        <path d="M278.729 395.558H260.171V376.722H278.729V395.558Z"/>
        <path d="M260.172 395.558H241.614V376.722H260.172V395.558Z"/>
        <path d="M130.269 395.558H111.711V376.722H130.269V395.558Z"/>
        <path d="M111.711 395.558H93.1538V376.722H111.711V395.558Z"/>
        <path d="M482.857 376.722H464.299V357.886H482.857V376.722Z"/>
        <path d="M464.299 376.722H445.742V357.886H464.299V376.722Z"/>
        <path d="M445.742 376.722H427.185V357.886H445.742V376.722Z"/>
        <path d="M352.954 376.722H334.397V357.886H352.954V376.722Z"/>
        <path d="M334.397 376.722H315.839V357.886H334.397V376.722Z"/>
        <path d="M260.172 376.722H241.614V357.886H260.172V376.722Z"/>
        <path d="M241.614 376.722H223.057V357.886H241.614V376.722Z"/>
        <path d="M148.827 376.722H130.269V357.886H148.827V376.722Z"/>
        <path d="M130.269 376.722H111.711V357.886H130.269V376.722Z"/>
        <path d="M111.711 376.722H93.1538V357.886H111.711V376.722Z"/>
        <path d="M464.299 357.886H445.742V339.05H464.299V357.886Z"/>
        <path d="M445.742 357.886H427.185V339.05H445.742V357.886Z"/>
        <path d="M371.512 357.886H352.955V339.05H371.512V357.886Z"/>
        <path d="M352.954 357.886H334.397V339.05H352.954V357.886Z"/>
        <path d="M241.614 357.886H223.057V339.05H241.614V357.886Z"/>
        <path d="M223.057 357.886H204.499V339.05H223.057V357.886Z"/>
        <path d="M148.827 357.886H130.269V339.05H148.827V357.886Z"/>
        <path d="M130.269 357.886H111.711V339.05H130.269V357.886Z"/>
        <path d="M538.53 339.05H519.972V320.214H538.53V339.05Z"/>
        <path d="M519.972 339.05H501.415V320.214H519.972V339.05Z"/>
        <path d="M501.414 339.05H482.857V320.214H501.414V339.05Z"/>
        <path d="M445.742 339.05H427.185V320.214H445.742V339.05Z"/>
        <path d="M390.069 339.05H371.512V320.214H390.069V339.05Z"/>
        <path d="M371.512 339.05H352.955V320.214H371.512V339.05Z"/>
        <path d="M223.057 339.05H204.499V320.214H223.057V339.05Z"/>
        <path d="M204.499 339.05H185.941V320.214H204.499V339.05Z"/>
        <path d="M148.827 339.05H130.269V320.214H148.827V339.05Z"/>
        <path d="M93.1542 339.05H74.5967V320.214H93.1542V339.05Z"/>
        <path d="M74.5966 339.05H56.0391V320.214H74.5966V339.05Z"/>
        <path d="M56.0389 339.05H37.4814V320.214H56.0389V339.05Z"/>
        <path d="M594.202 320.214H575.645V301.378H594.202V320.214Z"/>
        <path d="M519.972 320.214H501.415V301.378H519.972V320.214Z"/>
        <path d="M501.414 320.214H482.857V301.378H501.414V320.214Z"/>
        <path d="M482.857 320.214H464.299V301.378H482.857V320.214Z"/>
        <path d="M408.627 320.214H390.069V301.378H408.627V320.214Z"/>
        <path d="M390.069 320.214H371.512V301.378H390.069V320.214Z"/>
        <path d="M204.499 320.214H185.941V301.378H204.499V320.214Z"/>
        <path d="M185.942 320.214H167.384V301.378H185.942V320.214Z"/>
        <path d="M111.711 320.214H93.1538V301.378H111.711V320.214Z"/>
        <path d="M93.1542 320.214H74.5967V301.378H93.1542V320.214Z"/>
        <path d="M74.5966 320.214H56.0391V301.378H74.5966V320.214Z"/>
        <path d="M594.202 301.378H575.645V282.542H594.202V301.378Z"/>
        <path d="M575.644 301.378H557.087V282.542H575.644V301.378Z"/>
        <path d="M501.414 301.378H482.857V282.542H501.414V301.378Z"/>
        <path d="M482.857 301.378H464.299V282.542H482.857V301.378Z"/>
        <path d="M464.299 301.378H445.742V282.542H464.299V301.378Z"/>
        <path d="M427.184 301.378H408.627V282.542H427.184V301.378Z"/>
        <path d="M408.627 301.378H390.069V282.542H408.627V301.378Z"/>
        <path d="M297.287 301.378H278.729V282.542H297.287V301.378Z"/>
        <path d="M185.942 301.378H167.384V282.542H185.942V301.378Z"/>
        <path d="M167.384 301.378H148.827V282.542H167.384V301.378Z"/>
        <path d="M130.269 301.378H111.711V282.542H130.269V301.378Z"/>
        <path d="M111.711 301.378H93.1538V282.542H111.711V301.378Z"/>
        <path d="M93.1542 301.378H74.5967V282.542H93.1542V301.378Z"/>
        <path d="M18.5575 282.542H0V263.705H18.5575V282.542Z"/>
        <path d="M37.4813 282.542H18.9238V263.705H37.4813V282.542Z"/>
        <path d="M18.5575 301.378H0V282.542H18.5575V301.378Z"/>
        <path d="M18.5575 263.706H0V244.869H18.5575V263.706Z"/>
        <path d="M594.202 282.542H575.645V263.705H594.202V282.542Z"/>
        <path d="M575.644 282.542H557.087V263.705H575.644V282.542Z"/>
        <path d="M557.087 282.542H538.529V263.705H557.087V282.542Z"/>
        <path d="M315.84 282.542H297.282V263.705H315.84V282.542Z"/>
        <path d="M297.287 282.542H278.729V263.705H297.287V282.542Z"/>
        <path d="M278.729 282.542H260.171V263.705H278.729V282.542Z"/>
        <path d="M594.202 263.706H575.645V244.869H594.202V263.706Z"/>
        <path d="M575.644 263.706H557.087V244.869H575.644V263.706Z"/>
        <path d="M501.414 263.706H482.857V244.869H501.414V263.706Z"/>
        <path d="M482.857 263.706H464.299V244.869H482.857V263.706Z"/>
        <path d="M464.299 263.706H445.742V244.869H464.299V263.706Z"/>
        <path d="M427.184 263.706H408.627V244.869H427.184V263.706Z"/>
        <path d="M408.627 263.706H390.069V244.869H408.627V263.706Z"/>
        <path d="M297.287 263.706H278.729V244.869H297.287V263.706Z"/>
        <path d="M185.942 263.706H167.384V244.869H185.942V263.706Z"/>
        <path d="M167.384 263.706H148.827V244.869H167.384V263.706Z"/>
        <path d="M130.269 263.706H111.711V244.869H130.269V263.706Z"/>
        <path d="M111.711 263.706H93.1538V244.869H111.711V263.706Z"/>
        <path d="M93.1542 263.706H74.5967V244.869H93.1542V263.706Z"/>
        <path d="M594.202 244.87H575.645V226.034H594.202V244.87Z"/>
        <path d="M519.972 244.87H501.415V226.034H519.972V244.87Z"/>
        <path d="M501.414 244.87H482.857V226.034H501.414V244.87Z"/>
        <path d="M482.857 244.87H464.299V226.034H482.857V244.87Z"/>
        <path d="M408.627 244.87H390.069V226.034H408.627V244.87Z"/>
        <path d="M390.069 244.87H371.512V226.034H390.069V244.87Z"/>
        <path d="M204.499 244.87H185.941V226.034H204.499V244.87Z"/>
        <path d="M185.942 244.87H167.384V226.034H185.942V244.87Z"/>
        <path d="M111.711 244.87H93.1538V226.034H111.711V244.87Z"/>
        <path d="M93.1542 244.87H74.5967V226.034H93.1542V244.87Z"/>
        <path d="M74.5966 244.87H56.0391V226.034H74.5966V244.87Z"/>
        <path d="M538.53 226.033H519.972V207.197H538.53V226.033Z"/>
        <path d="M519.972 226.033H501.415V207.197H519.972V226.033Z"/>
        <path d="M501.414 226.033H482.857V207.197H501.414V226.033Z"/>
        <path d="M445.742 226.033H427.185V207.197H445.742V226.033Z"/>
        <path d="M390.069 226.033H371.512V207.197H390.069V226.033Z"/>
        <path d="M371.512 226.033H352.955V207.197H371.512V226.033Z"/>
        <path d="M223.057 226.033H204.499V207.197H223.057V226.033Z"/>
        <path d="M204.499 226.033H185.941V207.197H204.499V226.033Z"/>
        <path d="M148.827 226.033H130.269V207.197H148.827V226.033Z"/>
        <path d="M93.1542 226.033H74.5967V207.197H93.1542V226.033Z"/>
        <path d="M74.5966 226.033H56.0391V207.197H74.5966V226.033Z"/>
        <path d="M56.0389 226.033H37.4814V207.197H56.0389V226.033Z"/>
        <path d="M464.299 207.197H445.742V188.361H464.299V207.197Z"/>
        <path d="M445.742 207.197H427.185V188.361H445.742V207.197Z"/>
        <path d="M371.512 207.197H352.955V188.361H371.512V207.197Z"/>
        <path d="M352.954 207.197H334.397V188.361H352.954V207.197Z"/>
        <path d="M241.614 207.197H223.057V188.361H241.614V207.197Z"/>
        <path d="M223.057 207.197H204.499V188.361H223.057V207.197Z"/>
        <path d="M148.827 207.197H130.269V188.361H148.827V207.197Z"/>
        <path d="M130.269 207.197H111.711V188.361H130.269V207.197Z"/>
        <path d="M482.857 188.361H464.299V169.525H482.857V188.361Z"/>
        <path d="M464.299 188.361H445.742V169.525H464.299V188.361Z"/>
        <path d="M445.742 188.361H427.185V169.525H445.742V188.361Z"/>
        <path d="M352.954 188.361H334.397V169.525H352.954V188.361Z"/>
        <path d="M334.397 188.361H315.839V169.525H334.397V188.361Z"/>
        <path d="M260.172 188.361H241.614V169.525H260.172V188.361Z"/>
        <path d="M241.614 188.361H223.057V169.525H241.614V188.361Z"/>
        <path d="M148.827 188.361H130.269V169.525H148.827V188.361Z"/>
        <path d="M130.269 188.361H111.711V169.525H130.269V188.361Z"/>
        <path d="M111.711 188.361H93.1538V169.525H111.711V188.361Z"/>
        <path d="M482.857 169.525H464.299V150.689H482.857V169.525Z"/>
        <path d="M464.299 169.525H445.742V150.689H464.299V169.525Z"/>
        <path d="M334.397 169.525H315.839V150.689H334.397V169.525Z"/>
        <path d="M315.84 169.525H297.282V150.689H315.84V169.525Z"/>
        <path d="M278.729 169.525H260.171V150.689H278.729V169.525Z"/>
        <path d="M260.172 169.525H241.614V150.689H260.172V169.525Z"/>
        <path d="M130.269 169.525H111.711V150.689H130.269V169.525Z"/>
        <path d="M111.711 169.525H93.1538V150.689H111.711V169.525Z"/>
        <path d="M482.857 150.689H464.299V131.853H482.857V150.689Z"/>
        <path d="M315.84 150.689H297.282V131.853H315.84V150.689Z"/>
        <path d="M278.729 150.689H260.171V131.853H278.729V150.689Z"/>
        <path d="M111.711 150.689H93.1538V131.853H111.711V150.689Z"/>
        <path d="M575.644 131.853H557.087V113.016H575.644V131.853Z"/>
        <path d="M18.9242 131.853H0.366699V113.016H18.9242V131.853Z"/>
        <path d="M575.644 113.017H557.087V94.1805H575.644V113.017Z"/>
        <path d="M557.087 113.017H538.529V94.1805H557.087V113.017Z"/>
        <path d="M390.069 113.017H371.512V94.1805H390.069V113.017Z"/>
        <path d="M371.512 113.017H352.955V94.1805H371.512V113.017Z"/>
        <path d="M352.954 113.017H334.397V94.1805H352.954V113.017Z"/>
        <path d="M241.614 113.017H223.057V94.1805H241.614V113.017Z"/>
        <path d="M223.057 113.017H204.499V94.1805H223.057V113.017Z"/>
        <path d="M204.499 113.017H185.941V94.1805H204.499V113.017Z"/>
        <path d="M37.4813 113.017H18.9238V94.1805H37.4813V113.017Z"/>
        <path d="M18.9242 113.017H0.366699V94.1805H18.9242V113.017Z"/>
        <path d="M575.644 94.1802H557.087V75.3441H575.644V94.1802Z"/>
        <path d="M557.087 94.1802H538.529V75.3441H557.087V94.1802Z"/>
        <path d="M538.53 94.1802H519.972V75.3441H538.53V94.1802Z"/>
        <path d="M408.627 94.1802H390.069V75.3441H408.627V94.1802Z"/>
        <path d="M390.069 94.1802H371.512V75.3441H390.069V94.1802Z"/>
        <path d="M371.512 94.1802H352.955V75.3441H371.512V94.1802Z"/>
        <path d="M315.84 94.1802H297.282V75.3441H315.84V94.1802Z"/>
        <path d="M278.729 94.1802H260.171V75.3441H278.729V94.1802Z"/>
        <path d="M223.057 94.1802H204.499V75.3441H223.057V94.1802Z"/>
        <path d="M204.499 94.1802H185.941V75.3441H204.499V94.1802Z"/>
        <path d="M185.942 94.1802H167.384V75.3441H185.942V94.1802Z"/>
        <path d="M56.0389 94.1802H37.4814V75.3441H56.0389V94.1802Z"/>
        <path d="M37.4813 94.1802H18.9238V75.3441H37.4813V94.1802Z"/>
        <path d="M18.9242 94.1802H0.366699V75.3441H18.9242V94.1802Z"/>
        <path d="M557.087 75.3442H538.529V56.5081H557.087V75.3442Z"/>
        <path d="M538.53 75.3442H519.972V56.5081H538.53V75.3442Z"/>
        <path d="M519.972 75.3442H501.415V56.5081H519.972V75.3442Z"/>
        <path d="M427.184 75.3442H408.627V56.5081H427.184V75.3442Z"/>
        <path d="M408.627 75.3442H390.069V56.5081H408.627V75.3442Z"/>
        <path d="M390.069 75.3442H371.512V56.5081H390.069V75.3442Z"/>
        <path d="M334.397 75.3442H315.839V56.5081H334.397V75.3442Z"/>
        <path d="M315.84 75.3442H297.282V56.5081H315.84V75.3442Z"/>
        <path d="M278.729 75.3442H260.171V56.5081H278.729V75.3442Z"/>
        <path d="M260.172 75.3442H241.614V56.5081H260.172V75.3442Z"/>
        <path d="M204.499 75.3442H185.941V56.5081H204.499V75.3442Z"/>
        <path d="M185.942 75.3442H167.384V56.5081H185.942V75.3442Z"/>
        <path d="M167.384 75.3442H148.827V56.5081H167.384V75.3442Z"/>
        <path d="M74.5966 75.3442H56.0391V56.5081H74.5966V75.3442Z"/>
        <path d="M56.0389 75.3442H37.4814V56.5081H56.0389V75.3442Z"/>
        <path d="M37.4813 75.3442H18.9238V56.5081H37.4813V75.3442Z"/>
        <path d="M538.53 56.5083H519.972V37.6722H538.53V56.5083Z"/>
        <path d="M519.972 56.5083H501.415V37.6722H519.972V56.5083Z"/>
        <path d="M501.414 56.5083H482.857V37.6722H501.414V56.5083Z"/>
        <path d="M352.954 56.5083H334.397V37.6722H352.954V56.5083Z"/>
        <path d="M334.397 56.5083H315.839V37.6722H334.397V56.5083Z"/>
        <path d="M315.84 56.5083H297.282V37.6722H315.84V56.5083Z"/>
        <path d="M278.729 56.5083H260.171V37.6722H278.729V56.5083Z"/>
        <path d="M260.172 56.5083H241.614V37.6722H260.172V56.5083Z"/>
        <path d="M241.614 56.5083H223.057V37.6722H241.614V56.5083Z"/>
        <path d="M93.1542 56.5083H74.5967V37.6722H93.1542V56.5083Z"/>
        <path d="M74.5966 56.5083H56.0391V37.6722H74.5966V56.5083Z"/>
        <path d="M56.0389 56.5083H37.4814V37.6722H56.0389V56.5083Z"/>
        <path d="M594.202 37.6719H575.645V18.8358H594.202V37.6719Z"/>
        <path d="M519.972 37.6719H501.415V18.8358H519.972V37.6719Z"/>
        <path d="M501.414 37.6719H482.857V18.8358H501.414V37.6719Z"/>
        <path d="M482.857 37.6719H464.299V18.8358H482.857V37.6719Z"/>
        <path d="M352.954 37.6719H334.397V18.8358H352.954V37.6719Z"/>
        <path d="M334.397 37.6719H315.839V18.8358H334.397V37.6719Z"/>
        <path d="M260.172 37.6719H241.614V18.8358H260.172V37.6719Z"/>
        <path d="M241.614 37.6719H223.057V18.8358H241.614V37.6719Z"/>
        <path d="M111.711 37.6719H93.1538V18.8358H111.711V37.6719Z"/>
        <path d="M93.1542 37.6719H74.5967V18.8358H93.1542V37.6719Z"/>
        <path d="M74.5966 37.6719H56.0391V18.8358H74.5966V37.6719Z"/>
        <path d="M594.202 18.8359H575.645V-0.000179291H594.202V18.8359Z"/>
        <path d="M575.644 18.8359H557.087V-0.000179291H575.644V18.8359Z"/>
        <path d="M501.414 18.8359H482.857V-0.000179291H501.414V18.8359Z"/>
        <path d="M482.857 18.8359H464.299V-0.000179291H482.857V18.8359Z"/>
        <path d="M464.299 18.8359H445.742V-0.000179291H464.299V18.8359Z"/>
        <path d="M352.954 18.8359H334.397V-0.000179291H352.954V18.8359Z"/>
        <path d="M241.614 18.8359H223.057V-0.000179291H241.614V18.8359Z"/>
        <path d="M130.269 18.8359H111.711V-0.000179291H130.269V18.8359Z"/>
        <path d="M111.711 18.8359H93.1538V-0.000179291H111.711V18.8359Z"/>
        <path d="M93.1542 18.8359H74.5967V-0.000179291H93.1542V18.8359Z"/>
        <path d="M18.9242 18.8359H0.366699V-0.000179291H18.9242V18.8359Z"/>
    </symbol>
  </defs>
</svg>
